<?xml version="1.0" standalone="no"?>
<!DOCTYPE svg PUBLIC "-//W3C//DTD SVG 20010904//EN"
 "http://www.w3.org/TR/2001/REC-SVG-20010904/DTD/svg10.dtd">
<svg version="1.0" xmlns="http://www.w3.org/2000/svg"
 width="1280.000000pt" height="1220.000000pt" viewBox="0 0 1280.000000 1220.000000"
 preserveAspectRatio="xMidYMid meet">

<g transform="translate(0.000000,1220.000000) scale(0.100000,-0.100000)"
fill="#000000" stroke="none">
<path d="M6520 9702 c-77 -41 -131 -163 -154 -352 l-15 -115 6 183 5 182 -76
0 c-74 0 -76 -1 -83 -27 -18 -63 -6 -364 21 -543 45 -304 56 -351 87 -382 17
-17 39 -29 58 -29 17 -1 37 -2 44 -3 23 -2 27 105 16 371 -16 354 -1 496 62
588 35 51 70 48 125 -10 31 -32 49 -62 63 -109 76 -247 31 -667 -83 -763 -26
-22 -37 -25 -78 -20 -54 7 -61 -4 -32 -48 43 -65 139 -50 217 34 171 182 220
630 97 885 -72 150 -179 211 -280 158z"/>
<path d="M7682 9693 c-18 -7 -48 -69 -65 -134 -24 -94 -34 -102 -42 -34 -11
94 -12 98 -47 91 -17 -3 -43 -6 -58 -6 -32 0 -36 -11 -49 -168 -6 -68 -16
-112 -31 -141 -12 -24 -24 -41 -26 -38 -3 3 -14 37 -24 76 -33 130 -74 165
-185 158 -164 -9 -245 -109 -245 -301 1 -252 126 -390 282 -313 60 30 79 54
142 182 24 50 57 103 73 118 l30 28 13 -90 14 -90 46 -10 c26 -6 56 -8 68 -4
25 6 27 16 42 262 8 117 16 184 26 204 9 16 17 27 20 24 2 -2 9 -64 14 -138
13 -162 23 -204 60 -241 22 -21 38 -28 69 -28 33 0 44 6 69 36 52 63 109 318
95 431 -10 92 -53 51 -53 -52 0 -94 -20 -208 -47 -265 l-26 -55 -13 75 c-7 41
-13 146 -13 234 -1 150 -2 160 -23 177 -20 18 -85 25 -116 12z m-522 -301 c37
-37 53 -116 48 -242 -3 -89 -5 -101 -28 -125 -14 -15 -37 -33 -52 -41 -32 -16
-34 -13 -62 72 -22 66 -26 246 -6 294 17 43 39 70 57 70 8 0 27 -13 43 -28z"/>
<path d="M7825 8861 l-40 -6 -6 -365 c-5 -276 -10 -386 -22 -450 -33 -169 -67
-254 -112 -284 -15 -10 -28 -16 -29 -14 -2 2 -16 46 -31 98 -27 93 -28 101
-35 440 -4 222 -11 355 -18 373 -16 38 -54 50 -137 44 -80 -6 -101 -13 -109
-33 -3 -8 -8 -87 -11 -177 -11 -272 -39 -395 -104 -450 -47 -39 -83 -36 -118
9 -42 56 -43 135 -4 296 17 69 31 140 31 156 0 28 -3 30 -57 41 -137 27 -205
6 -251 -76 -13 -23 -45 -130 -71 -236 -27 -107 -53 -203 -59 -213 -9 -16 -11
-14 -16 16 -3 19 -10 102 -14 183 -5 81 -12 150 -15 153 -2 3 -33 9 -67 14
-70 10 -157 3 -167 -14 -4 -6 -8 -158 -9 -338 -1 -181 -6 -342 -9 -359 -6 -27
-5 -31 10 -26 13 5 20 -2 31 -31 l15 -37 143 -1 143 -1 6 166 c6 178 16 248
49 351 24 76 45 111 52 89 47 -145 62 -184 92 -232 81 -130 182 -130 331 -1
33 30 63 54 66 54 10 0 26 -65 43 -170 18 -118 50 -196 95 -234 39 -33 130
-60 174 -52 80 15 149 96 188 222 22 71 24 73 40 56 23 -25 21 -80 -3 -119
-11 -18 -63 -90 -116 -160 -53 -70 -113 -161 -133 -202 -31 -66 -36 -88 -39
-163 -5 -114 14 -172 72 -226 55 -51 102 -66 183 -59 163 13 288 140 324 331
12 64 11 216 -1 336 -17 154 -15 309 5 376 9 32 46 120 82 194 121 252 147
342 145 504 0 59 -3 110 -5 112 -2 3 -11 2 -20 -2 -29 -11 -66 -105 -82 -209
-33 -209 -79 -337 -140 -395 l-25 -23 0 64 c0 35 -8 163 -17 284 -9 121 -17
253 -19 294 -1 40 -6 77 -12 83 -23 23 -112 32 -197 19z m20 -1351 c3 -11 7
-81 8 -157 1 -152 -13 -218 -60 -273 -35 -42 -82 -41 -117 0 -73 88 -31 273
90 394 31 31 60 56 64 56 5 0 11 -9 15 -20z"/>
<path d="M4243 8393 c-69 -3 -105 -8 -112 -17 -15 -17 -40 -293 -35 -371 3
-33 9 -114 15 -180 5 -66 12 -192 16 -280 l6 -160 -104 -44 c-233 -99 -291
-122 -296 -117 -3 3 -12 36 -19 73 -29 140 -28 457 3 753 4 46 2 59 -15 80
-19 24 -25 25 -137 25 -115 0 -117 0 -140 -27 -13 -15 -27 -48 -31 -73 -12
-81 3 -652 19 -745 8 -47 17 -105 18 -130 l4 -44 -75 -13 c-41 -7 -85 -15 -97
-18 -28 -6 -30 -33 -7 -78 35 -69 64 -95 148 -135 l84 -40 12 -74 c74 -450
119 -527 294 -495 52 9 70 17 69 27 -1 8 -25 151 -53 318 -27 167 -50 314 -50
328 0 19 10 28 53 46 28 12 117 55 196 95 79 40 147 73 152 73 4 0 11 -17 15
-37 3 -21 27 -117 51 -213 25 -96 55 -222 67 -280 l22 -104 60 -13 c32 -7 80
-12 106 -13 39 0 50 4 63 24 14 21 14 33 1 117 -14 85 -82 613 -123 944 -15
123 -16 215 -9 705 l1 95 -35 1 c-19 0 -81 -1 -137 -3z"/>
<path d="M5960 8231 c-48 -10 -94 -38 -113 -70 -8 -14 -29 -75 -46 -136 -34
-116 -78 -217 -98 -223 -10 -3 -13 20 -13 90 0 51 -3 109 -6 129 -6 35 -6 35
-78 47 -56 10 -82 9 -121 0 l-50 -13 -12 -65 c-7 -36 -19 -126 -28 -200 -64
-553 -113 -736 -234 -863 -107 -114 -190 -94 -272 65 l-19 37 58 44 c119 93
216 211 275 335 29 60 32 76 32 157 0 103 -16 144 -82 207 -80 78 -224 109
-334 73 -101 -34 -183 -144 -231 -312 -20 -68 -23 -101 -23 -253 0 -138 4
-189 19 -240 72 -260 210 -383 409 -367 141 12 246 94 323 252 45 93 104 255
104 287 0 10 6 18 13 18 9 0 26 -51 49 -146 20 -80 38 -147 40 -149 2 -2 38
-5 81 -7 l77 -3 0 101 0 102 33 21 c18 11 41 28 49 38 14 15 85 370 113 566 4
26 9 46 12 44 2 -3 8 -63 14 -133 12 -174 30 -314 39 -314 4 0 26 24 48 54 24
32 70 73 111 101 l71 47 0 231 c0 241 -16 408 -42 432 -16 16 -121 26 -168 16z
m-963 -588 c11 -50 18 -117 18 -183 0 -96 -2 -110 -28 -159 -26 -48 -119 -151
-137 -151 -14 0 -21 46 -27 169 -10 209 22 329 100 376 23 14 45 25 49 25 4 0
15 -35 25 -77z"/>
<path d="M6200 7476 c-111 -65 -168 -120 -202 -193 -15 -34 -38 -69 -50 -78
-20 -14 -110 -72 -175 -112 -23 -13 -23 -15 -23 -258 l0 -244 -32 -37 -33 -37
0 -112 0 -112 33 -37 32 -37 0 -227 c0 -125 3 -236 6 -247 3 -11 37 -41 75
-68 l69 -47 0 -55 0 -55 195 0 c157 0 195 -3 195 -13 0 -23 -53 -92 -103 -136
-68 -58 -105 -71 -203 -71 l-84 0 0 85 c0 47 -3 85 -7 85 -3 0 -34 -5 -68 -11
l-62 -10 -6 -392 c-4 -215 -5 -393 -2 -395 2 -3 260 -7 573 -10 l569 -5 6 24
c4 13 7 194 7 401 l0 377 -57 11 c-32 6 -63 13 -70 15 -8 3 -14 -24 -19 -86
l-7 -91 -97 4 -98 3 -58 45 c-66 52 -124 122 -124 151 0 18 9 19 178 19 97 0
182 4 188 8 6 4 14 28 18 54 7 49 13 56 102 118 l42 29 6 123 c3 68 5 177 3
244 -2 118 -1 121 27 162 20 30 31 62 39 114 13 94 4 137 -38 188 l-35 42 0
243 0 244 -32 16 c-18 8 -46 26 -62 38 l-29 24 34 42 c33 42 33 43 14 58 -11
8 -72 41 -135 73 -157 81 -149 72 -111 111 17 19 31 37 31 40 0 12 -111 21
-163 14 -29 -4 -74 -16 -100 -26 -52 -20 -68 -23 -66 -11 3 20 -2 52 -8 52 -5
0 -42 -20 -83 -44z m160 -442 c201 -51 274 -83 302 -134 22 -39 20 -103 -5
-162 l-14 -34 -141 -28 c-77 -16 -146 -32 -152 -36 -10 -6 -14 -96 -18 -364
l-5 -356 54 0 c30 0 97 7 149 15 139 21 142 21 96 -20 -49 -44 -121 -60 -228
-50 -68 6 -78 4 -78 -10 0 -11 21 -26 59 -42 58 -25 60 -27 54 -57 -8 -45 -27
-71 -63 -86 -44 -18 -154 0 -262 42 -67 27 -96 33 -152 32 l-69 -1 6 435 c4
240 7 526 7 636 l0 201 83 38 c75 34 87 37 142 31 33 -3 139 -26 235 -50z
m288 -492 c5 -35 -48 -82 -93 -82 -49 0 -74 15 -91 55 -23 56 -22 56 84 53 92
-3 97 -4 100 -26z"/>
<path d="M6020 6544 c0 -39 50 -84 95 -84 45 0 95 45 95 84 l0 26 -95 0 -95 0
0 -26z"/>
<path d="M8700 7241 c-82 -17 -120 -62 -120 -144 0 -60 9 -73 59 -83 25 -5 37
-2 57 17 42 39 47 55 33 109 -11 44 -11 52 4 68 17 19 23 43 10 41 -5 -1 -24
-4 -43 -8z"/>
<path d="M8243 6970 c-32 -13 -43 -87 -42 -275 1 -262 -22 -514 -44 -479 -13
22 -28 141 -33 269 -7 175 -8 183 -42 196 -21 8 -38 6 -77 -9 -27 -11 -72 -23
-100 -27 -41 -6 -57 -14 -90 -49 -52 -54 -64 -95 -80 -281 -18 -201 -39 -251
-130 -297 l-39 -21 -26 31 c-38 46 -61 118 -67 208 -6 91 5 138 42 178 38 41
48 34 41 -31 -3 -32 -9 -75 -12 -97 l-6 -38 48 5 c63 6 84 31 84 101 0 95 -50
155 -139 164 -72 7 -111 -20 -153 -106 -32 -65 -33 -70 -33 -197 0 -115 3
-136 23 -180 32 -70 68 -103 129 -121 117 -34 205 27 248 170 l12 39 31 -45
c74 -108 185 -70 216 75 8 35 24 35 37 0 34 -91 97 -82 171 25 26 38 33 43 36
27 9 -59 85 -352 94 -362 13 -16 88 -17 121 -2 45 20 62 65 60 156 -2 118 -43
259 -129 448 -4 10 62 52 70 44 2 -2 20 -36 39 -75 55 -109 113 -146 203 -130
48 9 112 70 139 131 53 118 96 346 76 398 -15 38 -29 34 -36 -10 -43 -260 -69
-347 -122 -393 -42 -37 -64 -38 -104 -2 -42 37 -35 56 46 127 74 66 95 109 95
200 0 60 -2 67 -35 99 -39 39 -101 61 -147 51 -71 -16 -125 -99 -148 -225 -6
-36 -18 -79 -26 -96 -15 -30 -58 -63 -70 -52 -3 3 -6 100 -6 214 -1 240 -4
254 -66 253 -20 0 -47 -4 -59 -9z m447 -225 c13 -81 3 -140 -30 -175 -48 -52
-60 -42 -60 50 0 46 6 95 14 114 13 31 55 80 63 72 2 -2 8 -29 13 -61z m-710
-312 c0 -164 -15 -262 -43 -290 -23 -23 -34 -9 -51 67 -18 78 -21 213 -5 280
11 49 52 100 81 100 17 0 18 -12 18 -157z m460 -230 c21 -56 43 -263 29 -263
-17 0 -52 147 -65 269 -8 78 5 76 36 -6z"/>
<path d="M9430 6259 c-168 -43 -476 -132 -650 -188 l-185 -58 -6 -37 c-3 -20
-3 -36 0 -36 4 0 119 41 256 91 138 51 354 127 480 170 221 76 263 99 105 58z"/>
<path d="M8940 5774 c-278 -97 -626 -218 -775 -269 -148 -52 -285 -99 -302
-105 -28 -10 -33 -17 -33 -44 0 -18 3 -35 6 -39 14 -14 443 147 1034 388 157
64 354 143 438 177 135 53 170 69 145 67 -5 0 -235 -79 -513 -175z"/>
<path d="M7905 5771 c-364 -118 -475 -158 -475 -171 0 -18 77 -23 157 -11 111
16 251 57 483 142 107 40 197 73 199 75 9 7 -11 74 -22 74 -7 -1 -160 -49
-342 -109z"/>
<path d="M5361 5821 c-25 -25 -26 -34 -5 -97 21 -63 40 -84 75 -84 62 0 76 68
33 156 -15 32 -25 40 -51 42 -22 2 -38 -3 -52 -17z m84 -73 c15 -46 17 -60 7
-70 -20 -20 -45 3 -61 54 -29 95 22 109 54 16z"/>
<path d="M5219 5775 c-30 -16 -40 -41 -28 -73 11 -29 38 -19 32 12 -6 32 20
52 40 31 14 -14 14 -20 0 -68 -8 -28 -19 -59 -23 -68 -5 -8 -5 -21 0 -29 7
-11 18 -9 64 10 59 23 65 34 42 66 -14 18 -15 18 -24 -7 -9 -23 -39 -45 -48
-36 -2 2 5 27 16 55 25 65 25 77 0 102 -23 23 -36 24 -71 5z"/>
<path d="M5051 5684 c-25 -32 -26 -36 -5 -77 48 -94 92 -119 134 -77 28 28 25
57 -13 120 -27 46 -37 56 -63 58 -25 2 -37 -3 -53 -24z m93 -63 c26 -48 27
-54 12 -69 -14 -14 -17 -14 -34 1 -27 24 -56 93 -48 112 11 29 40 11 70 -44z"/>
<path d="M9280 5611 c-298 -104 -1029 -380 -1083 -409 -46 -25 -134 -109 -124
-118 18 -19 1427 565 1427 590 0 12 -30 3 -220 -63z"/>
<path d="M4914 5605 c-19 -19 -23 -31 -18 -48 15 -50 47 -47 37 3 -4 23 -1 31
12 36 34 13 44 -19 30 -94 -18 -92 -7 -101 63 -56 51 34 52 35 36 59 -17 26
-34 25 -34 -3 0 -10 -9 -23 -20 -30 -23 -14 -24 -10 -8 57 10 43 9 53 -6 75
-21 34 -59 34 -92 1z"/>
<path d="M4759 5416 c-7 -14 -17 -22 -24 -20 -15 6 -39 -22 -30 -36 3 -6 10
-8 14 -6 13 8 51 -51 45 -68 -8 -21 12 -20 40 2 23 18 25 45 2 36 -17 -6 -48
40 -40 60 14 37 67 2 69 -44 0 -20 14 -19 44 2 23 16 22 41 -2 33 -7 -3 -22
11 -35 30 -27 43 -66 48 -83 11z"/>
<path d="M9535 5412 c-43 -9 -393 -129 -664 -227 -538 -195 -613 -223 -623
-233 -13 -13 26 -72 47 -72 7 0 84 30 171 66 88 36 366 152 619 256 253 104
464 193 469 198 13 13 5 17 -19 12z"/>
<path d="M7056 5371 c-2 -14 -4 -188 -3 -386 2 -337 4 -366 25 -450 49 -191
138 -316 275 -383 l67 -33 0 -184 c0 -101 4 -186 9 -189 15 -10 104 42 186
108 105 84 317 301 387 396 30 41 87 128 127 192 81 133 81 126 8 223 -211
282 -752 660 -1036 724 -37 8 -39 7 -45 -18z"/>
<path d="M5460 5357 c-172 -65 -420 -222 -640 -405 -182 -151 -350 -341 -350
-397 0 -27 89 -171 174 -278 200 -258 459 -497 574 -532 21 -6 22 -4 22 63 0
38 3 124 7 191 l6 122 69 36 c43 22 89 58 126 97 146 157 194 379 172 816 -5
118 -10 239 -10 268 l0 52 -32 0 c-18 -1 -71 -15 -118 -33z"/>
<path d="M4612 5307 c-41 -44 -15 -117 42 -117 35 0 76 37 76 68 l-1 27 -27
-33 c-26 -30 -62 -44 -62 -22 0 6 3 10 8 10 4 0 22 15 41 32 33 29 33 31 16
44 -28 21 -69 17 -93 -9z m43 -31 c-29 -24 -42 -20 -31 9 3 8 18 15 33 15 l28
0 -30 -24z"/>
<path d="M4512 5228 c-12 -13 -31 -31 -42 -40 -43 -38 -10 -111 50 -111 22 0
39 7 51 21 22 27 29 28 29 2 0 -13 -12 -28 -30 -38 -16 -9 -30 -20 -30 -24 0
-16 40 -7 66 15 37 32 34 67 -10 118 -20 24 -36 51 -36 61 0 25 -22 23 -48 -4z
m32 -51 c26 -19 18 -61 -13 -65 -15 -3 -30 3 -38 14 -17 23 -16 29 3 48 19 19
25 20 48 3z"/>
<path d="M4340 5145 c-10 -12 -10 -19 -2 -27 15 -15 48 14 38 31 -10 15 -21
14 -36 -4z"/>
<path d="M4376 5101 c-17 -18 -7 -39 12 -27 11 7 52 -48 52 -69 0 -22 13 -19
39 9 22 23 21 53 -1 40 -5 -3 -27 10 -47 30 -37 36 -38 36 -55 17z"/>
<path d="M9275 5031 c-110 -38 -319 -112 -465 -165 -146 -54 -303 -111 -348
-128 -94 -34 -131 -61 -134 -98 -6 -56 51 -36 722 257 245 107 447 197 449
199 13 12 -45 -4 -224 -65z"/>
<path d="M4311 5036 c-36 -37 -38 -46 -13 -46 23 0 66 -45 58 -59 -14 -23 18
-21 42 2 l26 26 -25 9 c-13 6 -32 19 -42 30 -16 17 -16 20 -2 25 8 4 15 13 15
21 0 27 -28 24 -59 -8z"/>
<path d="M4147 4960 c-30 -24 -50 -78 -42 -113 23 -91 158 -108 201 -25 24 47
18 86 -20 124 -41 41 -97 47 -139 14z m127 -62 c23 -65 -33 -115 -93 -84 -80
42 -29 155 54 122 17 -7 34 -24 39 -38z"/>
<path d="M9445 4753 c-132 -32 -900 -294 -1105 -378 -140 -57 -180 -85 -180
-126 0 -19 5 -29 15 -29 25 0 276 97 500 192 115 49 320 133 455 185 230 90
360 147 360 158 0 6 -16 5 -45 -2z"/>
<path d="M6385 4367 c-109 -36 -195 -100 -260 -191 -57 -80 -79 -150 -72 -225
9 -104 33 -117 124 -65 69 40 116 102 146 197 44 135 93 197 197 253 25 13 37
25 30 29 -22 14 -126 15 -165 2z"/>
<path d="M9145 4346 c-121 -36 -162 -51 -693 -249 -200 -74 -373 -143 -384
-154 -24 -22 -62 -93 -54 -101 22 -21 1225 486 1250 527 10 15 6 14 -119 -23z"/>
<path d="M6560 4294 c-86 -38 -146 -111 -180 -221 -38 -122 -95 -197 -187
-243 -39 -19 -43 -24 -28 -33 10 -5 52 -7 94 -5 104 6 175 42 267 133 110 110
156 238 122 340 -15 46 -35 53 -88 29z"/>
<path d="M8945 3978 c-113 -29 -373 -106 -555 -164 -394 -126 -594 -205 -748
-293 -18 -10 -55 -28 -82 -40 -28 -12 -65 -35 -84 -51 -18 -17 -60 -42 -92
-56 -64 -27 -256 -123 -264 -132 -22 -22 250 79 795 295 598 237 1048 423
1065 439 8 8 12 14 10 13 -3 -1 -23 -6 -45 -11z"/>
<path d="M8435 3428 c-361 -89 -909 -282 -1670 -588 -651 -262 -705 -285 -705
-297 0 -7 6 -13 14 -13 24 0 286 77 451 133 147 50 274 99 1070 412 149 59
414 163 590 232 176 69 322 127 324 129 7 7 -32 2 -74 -8z"/>
<path d="M6720 3115 c-287 -62 -491 -149 -545 -232 l-17 -25 34 7 c76 17 564
206 657 255 l36 19 -30 0 c-16 -1 -77 -11 -135 -24z"/>
<path d="M7780 2966 c-389 -111 -961 -340 -1117 -447 -68 -48 -38 -49 110 -4
406 122 1093 399 1151 464 19 21 19 21 -5 20 -13 0 -76 -15 -139 -33z"/>
</g>
</svg>
